<svg width="552.94084" height="367.92049" xmlns="http://www.w3.org/2000/svg">

 <g>
  <title>Layer 1</title>
  <path id="svg_1" fill="#e6e7e8" d="m213.77996,33.23929l-67.08496,0c-2.30142,0 -4.17392,-1.87249 -4.17392,-4.17392s1.8725,-4.17392 4.17392,-4.17392l67.08496,0c2.30142,0 4.17392,1.87249 4.17392,4.17392s-1.8725,4.17392 -4.17392,4.17392z"/>
  <path id="svg_2" fill="#e6e7e8" d="m266.13329,47.3664l-119.43829,0c-2.30142,0 -4.17392,-1.87249 -4.17392,-4.17392s1.8725,-4.17392 4.17392,-4.17392l119.43829,0c2.30142,0 4.17392,1.87249 4.17392,4.17392s-1.8725,4.17392 -4.17392,4.17392l0,0z"/>
  <path id="svg_3" fill="#e6e7e8" d="m266.13329,61.3664l-119.43829,0c-2.30142,0 -4.17392,-1.87249 -4.17392,-4.17392s1.8725,-4.17392 4.17392,-4.17392l119.43829,0c2.30142,0 4.17392,1.87249 4.17392,4.17392s-1.8725,4.17392 -4.17392,4.17392l0,0z"/>
  <path id="svg_4" fill="#3f3d56" d="m278.78484,134.01856l0,-2c-23.08527,0 -43.24463,-18.85779 -48.60437,-45.12573l8.69812,2.23767c-4.20703,-3.98584 -8.45721,-10.65851 -11.09375,-16.11194c-1.55719,5.85443 -4.46582,13.21167 -7.84137,17.92249l8.22992,-3.89856c5.47247,27.32849 26.49829,46.97607 50.61145,46.97607z"/>
  <path id="svg_5" fill="#f85a40" d="m270.05257,57.47993c0,2.20557 -1.79443,4 -4,4l-52,0c-2.20557,0 -4,-1.79443 -4,-4s1.79443,-4 4,-4l52,0c2.20557,0 4,1.79443 4,4z"/>
  <path id="svg_18" fill="#444444" d="m474.36993,25.95775c-1.07404,8.8273 -2.2475,17.64251 -3.52008,26.4434c-0.51691,3.57451 -1.06342,7.19449 -2.50153,10.50752c-0.98163,2.26144 -2.35657,4.32654 -3.72394,6.37788c-1.61578,2.42407 -3.25836,4.87904 -5.45282,6.7952s-5.04492,3.26164 -7.94946,3.03645c7.70642,-5.18758 12.8858,-13.96159 13.70416,-23.21526c0.3847,-4.34975 -0.14313,-8.72215 -0.24438,-13.08771c-0.10126,-4.36555 0.26416,-8.88307 2.27832,-12.75752s5.99286,-6.97589 10.35815,-6.86575l-2.94849,2.76579l0.00006,0l0.00001,0z"/>
  <g id="svg_19">
   <path id="svg_20" fill="#a0616a" d="m396.26787,214.23064l0,0c-6.27057,5.08578 -13.97736,5.97379 -17.21375,1.98346s-0.77679,-11.3479 5.49371,-16.43365c2.74481,-2.2262 5.76483,-3.64789 8.5647,-4.20834l26.84027,-21.21652l9.68811,12.80746l-27.48755,19.55594c-1.12628,2.62384 -3.14075,5.28543 -5.88556,7.51163l-0.00006,0l0.00012,0.00003l0.00001,-0.00001z"/>
   <path id="svg_21" fill="#f85a40" d="m401.33776,185.42794l39.99296,-37.948l4,-3s22.95754,-22.36648 28.9023,-22.87869c2.51782,-0.21648 5.03571,0.41119 7.1568,1.78918c3.42688,2.22208 5.20166,5.87984 5.20166,9.56644c0,3.08057 -1.24091,6.17563 -3.78046,8.45538l-36.61359,32.86926l-15.57611,13.98169l-19.37097,17.39417l-1.96954,-4.01126l-6.659,-13.5921l-1.28418,-2.62607l0,0.00003l0.00012,-0.00003l0.00001,0z"/>
  </g>
  <path id="svg_22" fill="#a0616a" d="m486.85284,159.74625l-40.04333,12.26463c6.7041,1.88855 9.51105,42.73956 3.27209,44.00848c0,0 66.36469,4.72018 62.74347,0c-4.41431,-5.754 1.50592,-43.99176 4.32867,-44.00848l-30.3009,-12.26463z"/>
  <path id="svg_23" fill="#ffffff" d="m540.13634,367.92046l-3.5,-42.23999c0,-15.10999 -0.97998,-28.76001 -2.54999,-40.92999c-6.28998,-48.85001 -22.06,-73.88998 -22.06,-73.88998l-59,0c-0.08002,0.09 -0.15997,0.16 -0.23999,0.25l-0.01001,0.01001c-13.91998,14.63 -21.15997,51.41998 -24.38,73.63c-1.53003,10.57001 -2.15002,17.84 -2.15002,17.84l-5.77002,51.28l4.16998,14.04999l34.33002,0l-0.53998,-3.01001l22.09003,-80.16l0.27002,-0.98001l0.23999,0.98001l20.47998,83.17001l38.62,0l0,-0.00003l-0.00001,-0.00001z"/>
  <path id="svg_24" fill="#f85a40" d="m454.23546,135.37935l12.46728,-25.16714l10.50494,-18.28423l8.49506,-8.65739l23.24878,0l2.16437,8.65739l12.98608,7.21449l4.59332,36.07251l-16.36458,78.26495c-19.47919,-15.87189 -59.62797,-20.26772 -59.62797,-20.26772l-6.50531,-18.93073l-4.2998,-22.80504l-0.51947,-2.72707l12.8573,-13.37006l0,0l0,0.00003l0,0.00001z"/>
  <g id="svg_25">
   <path id="svg_26" fill="#a0616a" d="m452.73968,180.90541l0,0c-8.07043,-0.229 -14.49464,-4.57792 -14.34891,-9.71369c0.14571,-5.13571 6.8062,-9.11345 14.8766,-8.88439c3.53272,0.10023 6.74987,0.99004 9.23871,2.38963l34.18456,1.39931l-0.99826,16.02791l-33.59332,-3.08063c-2.5642,1.25613 -5.82665,1.96211 -9.35933,1.86183l-0.00001,0l-0.00004,0.00004l0,-0.00001z"/>
   <path id="svg_27" fill="#f85a40" d="m496.45654,126.19796l32.24621,32.01426l-56.16791,5.7518l-13.05301,18.36017l78.2884,2.59582c7.06351,2.51549 14.58749,-2.36608 15.16884,-9.84155l0,-0.00003c0.19626,-2.52421 -15.8874,-66.57211 -25.62415,-72.51812c-11.41186,-6.96901 -30.85838,23.63765 -30.85838,23.63765l6.36944,-10.60332l-6.36944,10.60332z"/>
  </g>
  <circle id="svg_28" fill="#a0616a" transform="rotate(-89.0762, 433.159, 543.066)" r="26.33295" cy="594.49931" cx="925.68584"/>
  <path id="svg_29" fill="#2b2b2b" d="m550.33072,133.47993c-0.65997,2.5 -5.79999,3.78998 -7,7c-3.82001,2.17999 -1.75,-15.63 -3.28998,-16.79999c-1.19,-0.89001 -1.51001,1.25995 -1.78003,-0.59003c-1.02002,-6.94 -7.69,-5.39001 -12.63,-6.51001c-0.56,-1.08997 -0.98999,-2.14996 -1.26996,-3.17999c-0.5,-1.85999 -2.78003,-2.51001 -4.13,-1.14001c-0.61005,-0.53998 -1.05005,-2.45001 -1.48004,-4.35999c-0.31,-1.39001 -0.62,-2.77997 -0.97998,-3.65997l-3.44,-7.76001l1.10999,5.77997c-2.25,-0.81 -4.51996,0.03003 -5.82996,-2.75c-1.68005,-3.57001 -2.35004,-7.75 -1.13,-11.5c1.10999,-3.39996 2.97998,-10.20996 5.08997,-15.84998c-2.39001,1.72998 -5.26001,2.98999 -8.58997,3.62c1.17999,-2.23999 2.38,-4.52002 2.88,-7.01001c0.48999,-2.48999 0.18994,-5.26001 -1.39001,-7.23999c-1.29999,-1.63 -3.22003,-1.22003 -4.84003,-2.53003c-1.26001,-1.01996 -2.34998,-3.62994 -3.10999,-5.06c3.23999,10.77002 5.69,22.21002 1.57001,32.49005c-2.85004,7.12 -8.85004,12.90997 -16.04999,15.53998c3.82996,-2.73999 7.57001,-5.66003 10.44,-9.38c3.06995,-3.98999 5.06995,-9.03003 4.45996,-14.03003c-0.95996,-7.84998 -15.51996,-32.67999 -17.31,-37.56c0.98004,4.77002 0.60004,8.49005 -1.97998,10.54004c-0.66998,-6.91998 -8.21002,-6.29004 -12.32001,-9.06c0,0 -3.17999,-17.97003 4.28003,-18.08002c3.59998,-0.04999 7.37,-8.51001 10.63995,-10.02002c5.22003,-2.40997 8.42004,-0.76996 14.21002,-0.58997c5.77997,0.16998 11.33002,2.65997 14.85999,7.22998c1.85004,2.39001 2.53003,0.48999 5.31,1.97998c2.64001,1.41003 4.41998,0.10004 7.41003,0.19c5.98999,0.16003 11.79999,3.36005 15.15997,8.31c3.35999,4.96002 5.42999,4.5 4.09998,12.17004c-0.01996,0.08997 -0.01996,0.26996 0,0.53998c0.73004,12.08002 -1.13995,24.19 -5.92999,35.31c-1.47998,3.41998 5.75938,6.94984 5.74938,11.21986c-0.01001,4.96002 -7.99938,9.48015 -7.25932,11.60015c2.12,10.21002 14.02997,7.94 11.21997,25.03003c-0.22998,1.38995 3.69,4.43994 3.25,6.10999l-0.00001,0z"/>
  <path id="svg_30" fill="#014d44" d="m477.37841,102.21068c0.21997,-0.06995 0.44,-0.14996 0.65997,-0.23999c-0.27997,0.20003 -0.54999,0.39001 -0.82996,0.59003l0.16998,-0.35004l0.00001,0z"/>
  <path id="svg_31" fill="#f85a40" d="m514.47042,17.96025c-2.8645,0.42569 -5.77454,-4.32687 -4.14813,-10.91754c3.54431,5.41956 5.35599,11.52063 5.64108,18.22217l-1.91016,0.5918l0.4172,-7.89643l0.00001,0z"/>
  <path id="svg_32" fill="#f85a40" d="m529.10567,11.80848c-1.95477,6.92664 -11.88171,11.56229 -13.63525,9.15176l-0.20065,4.13065l-1.22723,-1.57885c3.5603,-5.29441 8.41327,-9.35589 15.06305,-11.70356l0.00009,0l-0.00001,0z"/>
  <g id="svg_33">
   <path id="svg_34" fill="#e6e7e8" d="m311.12087,198.59383c0,-2.30142 1.8725,-4.17392 4.17392,-4.17392l67.08496,0c2.30142,0 4.17392,1.8725 4.17392,4.17392s-1.8725,4.17392 -4.17392,4.17392l-67.08496,0c-2.30142,0 -4.17392,-1.8725 -4.17392,-4.17392z"/>
   <path id="svg_35" fill="#e6e7e8" d="m311.12087,226.59383c0,-2.30142 1.8725,-4.17392 4.17392,-4.17392l67.08496,0c2.30142,0 4.17392,1.8725 4.17392,4.17392s-1.8725,4.17392 -4.17392,4.17392l-67.08496,0c-2.30142,0 -4.17392,-1.8725 -4.17392,-4.17392z"/>
   <path id="svg_36" fill="#e6e7e8" d="m262.94143,216.89486c-2.30142,0 -4.17392,-1.8725 -4.17392,-4.17392s1.8725,-4.17392 4.17392,-4.17392l119.43829,0c2.30142,0 4.17392,1.8725 4.17392,4.17392s-1.8725,4.17392 -4.17392,4.17392l-119.43829,0z"/>
  </g>
  <g id="svg_37">
   <path id="svg_38" fill="#3f3d56" d="m254.06191,176.94701l-8.22992,-3.89856c3.37555,4.71082 6.28418,12.06805 7.84137,17.92249c2.63654,-5.45343 6.88672,-12.1261 11.09375,-16.11194l-8.69812,2.23767c5.35974,-26.26794 25.5191,-45.12573 48.60437,-45.12573l0,-2c-24.11316,0 -45.13898,19.64758 -50.61145,46.97607z"/>
   <path id="svg_39" fill="#f85a40" d="m291.94109,216.97094l-52,0c-2.20557,0 -4,-1.79443 -4,-4s1.79443,-4 4,-4l52,0c2.20557,0 4,1.79443 4,4s-1.79443,4 -4,4z"/>
  </g>
  <circle id="svg_40" fill="#3f3d56" transform="rotate(-80.7825, 114.008, 399.315)" r="15.65736" cy="531.97249" cx="405.68138"/>
  <circle id="svg_41" fill="#e6e7e8" r="9.65737" cy="9.65737" cx="206.67334"/>
  <circle id="svg_42" fill="#e6e7e8" r="9.65737" cy="176.65737" cx="319.67334"/>
 </g>
</svg>